<svg xmlns="http://www.w3.org/2000/svg">
    <symbol id="cart" viewBox="0 0 32 32" fill="none">
        <circle cx="16" cy="16" r="16" fill="#95C19C"/>
        <path d="M24.5042 13.311H23.1591L20.5531 8.60606C20.2378 8.04147 19.5443 7.85327 18.9768 8.14602C18.4094 8.45968 18.2202 9.14973 18.5144 9.71432L20.49 13.29H11.4528L13.4284 9.71432C13.7437 9.14973 13.5335 8.45968 12.966 8.14602C12.3986 7.83236 11.705 8.04147 11.3898 8.60606L8.82576 13.311H7.48069C6.55596 13.311 5.84139 14.1683 6.03054 15.0674L7.88001 23.829C8.02712 24.5191 8.61559 25 9.33016 25H22.6968C23.3903 25 23.9998 24.5191 24.1469 23.829L25.9754 15.0674C26.1435 14.1474 25.4289 13.311 24.5042 13.311Z" fill="white"/>
    </symbol>

    <symbol id="analyze-pin" viewBox="0 0 35 35" xmlns="http://www.w3.org/2000/svg">
        <circle cx="17.1464" cy="17.1464" r="5.08042" transform="rotate(165 17.1464 17.1464)"/>
        <path fill-rule="evenodd" clip-rule="evenodd" d="M19.1188 24.5074C15.0535 25.5967 10.8748 23.1842 9.78549 19.1188C8.69618 15.0535 11.1087 10.8748 15.1741 9.78548L14.8454 8.55865C10.1025 9.82951 7.2878 14.7046 8.55866 19.4475C9.82952 24.1904 14.7046 27.0051 19.4475 25.7342L19.1188 24.5074Z"/>
        <path fill-rule="evenodd" clip-rule="evenodd" d="M8.66127 22.0454C5.95564 17.3591 7.56128 11.3668 12.2476 8.66112C16.9339 5.95549 22.9262 7.56113 25.6318 12.2474L27.046 11.4309C23.8895 5.96359 16.8984 4.09034 11.4311 7.24691C5.96373 10.4035 4.09048 17.3945 7.24705 22.8619L8.66127 22.0454Z"/>
    </symbol>

</svg>
