<svg xmlns="http://www.w3.org/2000/svg">
    <symbol id="cart" viewBox="0 0 32 32" fill="none">
        <circle cx="16" cy="16" r="16" fill="#95C19C"/>
        <path d="M24.5042 13.311H23.1591L20.5531 8.60606C20.2378 8.04147 19.5443 7.85327 18.9768 8.14602C18.4094 8.45968 18.2202 9.14973 18.5144 9.71432L20.49 13.29H11.4528L13.4284 9.71432C13.7437 9.14973 13.5335 8.45968 12.966 8.14602C12.3986 7.83236 11.705 8.04147 11.3898 8.60606L8.82576 13.311H7.48069C6.55596 13.311 5.84139 14.1683 6.03054 15.0674L7.88001 23.829C8.02712 24.5191 8.61559 25 9.33016 25H22.6968C23.3903 25 23.9998 24.5191 24.1469 23.829L25.9754 15.0674C26.1435 14.1474 25.4289 13.311 24.5042 13.311Z" fill="white"/>
    </symbol>
</svg>